<svg id="Final_" data-name="Final*" xmlns="http://www.w3.org/2000/svg" viewBox="0 0 360 360"><defs><style>.cls-1,.cls-2,.cls-3,.cls-4,.cls-5{fill:#231f20;}.cls-1,.cls-3,.cls-4,.cls-5{stroke:#231f20;}.cls-1,.cls-3{stroke-linejoin:round;}.cls-3{stroke-linecap:round;stroke-width:3.3px;}.cls-4,.cls-5{stroke-miterlimit:10;}.cls-5{stroke-width:2px;}</style></defs><path class="cls-1" d="M168.14,162.2l-3.7.05v-.07h.23Z"/><path class="cls-2" d="M168.25,165.5H168v-.3h.21C168.24,165.27,168.24,165.37,168.25,165.5Z"/><path class="cls-2" d="M168.59,165.82a1.74,1.74,0,0,1-.55,0l-.37-.11.09-.16a.36.36,0,0,0,.05-.3l-.05-.19.24,0a.68.68,0,0,0,.24-.12l.14-.08.19.41a1,1,0,0,1,.09.32C168.66,165.61,168.69,165.78,168.59,165.82Zm-.68-.64c-.1-.06-.07,0-.07,0s0,0,.07,0l.33.33a.33.33,0,0,0-.17-.1l.19-.22a.36.36,0,0,0,.05.3l-.28-.27S168,165.17,167.91,165.18Z"/><path class="cls-2" d="M218.17,170.3c0,8.23-19.09,15.11-43.5,15.11-4.35,0-4.35-.14-8.9-.14-20,0-35.44-5.81-35.44-12.58s14.87-9.94,34.36-9.94l7-.05c16.42,0,28.86,2.08,28.86,6,0,4.46-12,6.71-31.84,6.71h-1a1.52,1.52,0,0,1-1.35-1.56,16.47,16.47,0,0,0,.09-1.74l2.23,0c15.75,0,24.43-.48,24.43-3.86s-12.62-3.5-28.19-3.5h-.27l0-.1c-14.73.43-25.8,2.38-25.8,7.28,0,5.64,14.58,8.12,32.56,8l2.36-.06c19.14-.54,34.2-4.26,34.2-10.45,0-6.68-17.31-11.16-38.68-11.16h-.11c0-.15-.2-.3-.2-.46v-2.49l.26-.26C199.18,155,218.17,161.48,218.17,170.3Z"/><path class="cls-2" d="M218.63,170.3a6.52,6.52,0,0,1-1,3.37,11.26,11.26,0,0,1-2.26,2.59,24.79,24.79,0,0,1-5.73,3.53,59.59,59.59,0,0,1-12.73,4,115.74,115.74,0,0,1-26.46,2c-2.21-.1-4.39-.07-6.62-.11s-4.43-.16-6.64-.35a75.77,75.77,0,0,1-13.1-2.27,42.87,42.87,0,0,1-6.3-2.23,19.54,19.54,0,0,1-5.64-3.64,7.42,7.42,0,0,1-1.89-2.88,4.71,4.71,0,0,1,.14-3.48,6.79,6.79,0,0,1,2.23-2.63,15,15,0,0,1,2.93-1.68,47.92,47.92,0,0,1,12.93-3.13,122.3,122.3,0,0,1,13.25-.87c4.42,0,8.83-.12,13.25,0a124.9,124.9,0,0,1,13.25.88,50.17,50.17,0,0,1,6.54,1.21,20.16,20.16,0,0,1,3.17,1.1,5.19,5.19,0,0,1,2.64,2.18,2.83,2.83,0,0,1-1,3.24,9.88,9.88,0,0,1-3,1.65,33.83,33.83,0,0,1-6.47,1.61A108.4,108.4,0,0,1,177,175.49q-3.31.12-6.63.13h-2.49a1.42,1.42,0,0,1-.9-.25,1.89,1.89,0,0,1-.78-1.62,13.18,13.18,0,0,0,.09-1.62l0-.23h.23c4.79,0,9.59,0,14.36-.19a60.54,60.54,0,0,0,7.13-.65,13.86,13.86,0,0,0,3.39-.95,3,3,0,0,0,1.29-1,1.33,1.33,0,0,0,.07-1.43,3,3,0,0,0-1.33-.94,10.47,10.47,0,0,0-1.67-.53,29.34,29.34,0,0,0-3.52-.57c-2.37-.26-4.76-.37-7.15-.45-4.78-.15-9.57-.13-14.37-.13h-.37l.11-.37,0-.1.27.38a94.06,94.06,0,0,0-18.06,1.9,21.46,21.46,0,0,0-4.25,1.43,5.43,5.43,0,0,0-3.07,2.85,2.87,2.87,0,0,0,.15,2,4.45,4.45,0,0,0,1.35,1.62,13.67,13.67,0,0,0,4,2,47.17,47.17,0,0,0,8.84,1.9c3,.4,6,.63,9.06.77a149.2,149.2,0,0,0,18.19-.28,84.8,84.8,0,0,0,17.88-3,29.13,29.13,0,0,0,4.2-1.61,11.45,11.45,0,0,0,3.57-2.53,3.64,3.64,0,0,0,.85-3.81,7.09,7.09,0,0,0-2.84-3.14,29.5,29.5,0,0,0-8.28-3.4,72.81,72.81,0,0,0-8.89-1.77,129.32,129.32,0,0,0-18.14-1.17l-.45-.55c0,.17,0,.19,0,.17s-.06-.08-.12-.18a.61.61,0,0,1-.08-.21.39.39,0,0,1,0-.15v-2.68l.14-.14.26-.26.13-.13h.2a149.38,149.38,0,0,1,27.11,2.13,61,61,0,0,1,13.12,3.82,23.39,23.39,0,0,1,5.9,3.58,11,11,0,0,1,2.28,2.7A7,7,0,0,1,218.63,170.3Zm-.93,0a7.45,7.45,0,0,0-2.93-5.46,22.39,22.39,0,0,0-5.67-3.41,60.35,60.35,0,0,0-12.9-3.72,148,148,0,0,0-26.93-2.18l.33-.14-.26.26.14-.33v2.42s0,0,0,0l.09.13a.69.69,0,0,1,.13.51l-.46-.54A129.76,129.76,0,0,1,187.47,159a73,73,0,0,1,9,1.81,30.21,30.21,0,0,1,8.52,3.54,7.77,7.77,0,0,1,3.15,3.54,4.12,4.12,0,0,1,.16,2.48,5.06,5.06,0,0,1-1.17,2.16,12.27,12.27,0,0,1-3.83,2.71,31.33,31.33,0,0,1-4.31,1.65,86,86,0,0,1-18.06,3,148.67,148.67,0,0,1-18.28.23c-3-.14-6.09-.38-9.12-.79a47.12,47.12,0,0,1-9-2,14.44,14.44,0,0,1-4.14-2.1,5.14,5.14,0,0,1-1.53-1.86,3.46,3.46,0,0,1-.17-2.45,4.44,4.44,0,0,1,1.4-2,9.25,9.25,0,0,1,2-1.24,22.31,22.31,0,0,1,4.38-1.46,95.87,95.87,0,0,1,18.18-1.88h.4l-.12.38,0,.1-.27-.37c4.8,0,9.59,0,14.39.16,2.4.09,4.8.21,7.19.47a30.89,30.89,0,0,1,3.57.59,12.27,12.27,0,0,1,1.75.56,3.48,3.48,0,0,1,1.55,1.13,1.84,1.84,0,0,1-.07,2,3.46,3.46,0,0,1-1.49,1.18,14.32,14.32,0,0,1-3.52,1,64.42,64.42,0,0,1-7.19.64c-4.79.18-9.58.2-14.38.15l.21-.23a14.82,14.82,0,0,1-.09,1.68,1.43,1.43,0,0,0,.6,1.25,1,1,0,0,0,.66.18h2.48q3.31,0,6.62-.15a107.44,107.44,0,0,0,13.16-1.2,33.47,33.47,0,0,0,6.36-1.6,9.16,9.16,0,0,0,2.8-1.57,3.14,3.14,0,0,0,.89-1.23,1.84,1.84,0,0,0,0-1.42,4.83,4.83,0,0,0-2.4-1.92,19.3,19.3,0,0,0-3.08-1.06,50.58,50.58,0,0,0-6.48-1.18A121,121,0,0,0,175,163c-4.4-.08-8.83,0-13.23.06a123.26,123.26,0,0,0-13.18.9,47.61,47.61,0,0,0-12.74,3.11A15.11,15.11,0,0,0,133,168.7a6.18,6.18,0,0,0-2,2.37,4,4,0,0,0-.11,3,6.79,6.79,0,0,0,1.73,2.6,18.73,18.73,0,0,0,5.44,3.48,42.08,42.08,0,0,0,6.19,2.18,74,74,0,0,0,13,2.21q3.28.28,6.59.34c2.19,0,4.42,0,6.63.08a114.47,114.47,0,0,0,26.26-2.05A58.54,58.54,0,0,0,209.25,179a23.64,23.64,0,0,0,5.5-3.4C216.36,174.19,217.71,172.35,217.7,170.3Z"/><path class="cls-2" d="M247.37,199.84c-6.66,4.85-25.17,11.33-25.17,22.74,0,2.33-5.82-4.47,1.14-11.43,13.42-13.42,25.39-17.24,25.39-28.89,0-4.1-5.94-7-15.75,1.12-6.62,5.47-22.89,15.42-58.36,15.42-24.12,0-47.34-5.54-58.42-13.07-.07,1.34-.11,2.7-.11,4.06,0,35.54,23.85,64.35,53.26,64.35h6.32c7.91,0,20.26-5.93,27.13-9.11a.21.21,0,0,1,.2.36c-8.33,5.63-18.33,13.29-33.09,13.11-33.78-.41-61.17-31.9-61.17-71.26a71.78,71.78,0,0,1,.69-10.88c-.22-15.06,21.83-21.52,56.66-21.52l1.92,0,.26,4c-.83,0-1.63-.51-2.43-.5-31.88.12-43.66,7.29-43.66,16,0,9,20.42,16.37,52.94,16.37,58.41,0,43-23.74,68.39-23.74,12,0,14.9,8.21,14.9,14.9C258.41,188.64,256,193.54,247.37,199.84Z"/><path class="cls-2" d="M247.64,200.22a64,64,0,0,1-6.23,3.72c-2.11,1.15-4.21,2.3-6.26,3.54a51.73,51.73,0,0,0-5.87,4,21.87,21.87,0,0,0-4.8,5.14,12.45,12.45,0,0,0-1.44,3.15c-.07.28-.15.55-.2.84l-.14.85c0,.28,0,.57,0,.86v.21a1.31,1.31,0,0,1,0,.33.78.78,0,0,1-.26.43.71.71,0,0,1-.57.14,1.83,1.83,0,0,1-1-.71,4.86,4.86,0,0,1-.53-.83,6.88,6.88,0,0,1-.63-1.8,8.56,8.56,0,0,1,.08-3.77,12.61,12.61,0,0,1,4-6.17c1.73-1.69,3.51-3.31,5.34-4.88,3.66-3.14,7.53-6,11.18-9.09a34.09,34.09,0,0,0,5-5.05,14,14,0,0,0,3.08-8l0-.88a3.58,3.58,0,0,0-.1-.8,3.42,3.42,0,0,0-2-2.37,6.22,6.22,0,0,0-3.32-.38,13.33,13.33,0,0,0-3.35,1,26.78,26.78,0,0,0-6,3.76,49,49,0,0,1-5.92,4.19,65.67,65.67,0,0,1-13.17,6,95.41,95.41,0,0,1-14,3.48,153.15,153.15,0,0,1-28.77,2.05A156.87,156.87,0,0,1,143,196a112.57,112.57,0,0,1-13.94-3.78A57.39,57.39,0,0,1,116,186l.47-.23a76.68,76.68,0,0,0,1.94,21.72,69.29,69.29,0,0,0,8.18,20.19A59.21,59.21,0,0,0,141,244,47.68,47.68,0,0,0,160.69,253a44.64,44.64,0,0,0,5.4.74c1.82.13,3.64.14,5.47.14s3.68.06,5.48-.06a34,34,0,0,0,5.36-.95,81.11,81.11,0,0,0,10.34-3.6c3.4-1.4,6.65-2.92,10.06-4.49a.43.43,0,0,1,.5.36.4.4,0,0,1-.11.33,1.54,1.54,0,0,1-.17.13l-.57.39-1.13.77-2.27,1.55c-1.52,1-3.06,2-4.63,3a56.22,56.22,0,0,1-9.87,4.87,41.32,41.32,0,0,1-10.75,2.39,50.6,50.6,0,0,1-11-.41,55.66,55.66,0,0,1-20.66-7.33,61.35,61.35,0,0,1-8.94-6.43,66.55,66.55,0,0,1-7.68-7.89A76.07,76.07,0,0,1,109,196.31a96.74,96.74,0,0,1,.27-22,13.25,13.25,0,0,1,1.82-5.28,16.76,16.76,0,0,1,3.68-4.19,32.61,32.61,0,0,1,9.74-5.21A92.57,92.57,0,0,1,146,155.36c7.3-.72,14.65-.88,22-.91a.37.37,0,0,1,.37.34l.26,4a.36.36,0,0,1-.34.39h0a8.15,8.15,0,0,1-1.85-.42,2.66,2.66,0,0,0-.81-.07h-.9c-1.21,0-2.42,0-3.63.06q-3.62.1-7.23.37a94.46,94.46,0,0,0-14.31,2,46.62,46.62,0,0,0-6.87,2.11,22.58,22.58,0,0,0-6.18,3.51,10.16,10.16,0,0,0-3.72,5.75,6.82,6.82,0,0,0,.07,3.39,7.83,7.83,0,0,0,1.75,2.94,19.71,19.71,0,0,0,5.76,4.09,45.37,45.37,0,0,0,6.69,2.64,91.41,91.41,0,0,0,14.11,3.06,178.81,178.81,0,0,0,28.9,1.48A138.84,138.84,0,0,0,194.47,189a70.62,70.62,0,0,0,14.05-3.17,37,37,0,0,0,12.39-7.05c1.81-1.56,3.45-3.31,5.16-5a27.4,27.4,0,0,1,5.68-4.69,19.55,19.55,0,0,1,7-2.37,30.29,30.29,0,0,1,7.37-.18,15.35,15.35,0,0,1,7,2.44,12.57,12.57,0,0,1,4.54,5.89,19.06,19.06,0,0,1,1.19,7.31,18.59,18.59,0,0,1-1.41,7.26,20.23,20.23,0,0,1-4.23,6.06A42.74,42.74,0,0,1,247.64,200.22Zm-.55-.75a43.63,43.63,0,0,0,5.48-4.64,19.15,19.15,0,0,0,4-5.78,17.78,17.78,0,0,0,1.33-6.9,18.06,18.06,0,0,0-1.14-6.93,11.6,11.6,0,0,0-4.19-5.44,14.34,14.34,0,0,0-6.57-2.26c-4.68-.39-9.69,0-13.77,2.41s-7,6.46-10.71,9.62a38,38,0,0,1-12.71,7.21A72,72,0,0,1,194.6,190a138.77,138.77,0,0,1-14.53,1,179.61,179.61,0,0,1-29-1.53,91.33,91.33,0,0,1-14.24-3.11,47.48,47.48,0,0,1-6.81-2.69,20.43,20.43,0,0,1-6-4.29,8.9,8.9,0,0,1-1.92-3.25,7.61,7.61,0,0,1-.08-3.79,11,11,0,0,1,4-6.21,23.67,23.67,0,0,1,6.39-3.62,48.26,48.26,0,0,1,7-2.14,96.25,96.25,0,0,1,14.42-2c2.42-.18,4.85-.29,7.27-.35,1.21,0,2.43-.06,3.64-.07h.91a3.42,3.42,0,0,1,1,.09,8.32,8.32,0,0,0,1.68.41l-.38.39-.25-4,.36.34c-7.31,0-14.63.17-21.91.87a92.11,92.11,0,0,0-21.41,4.23,31.82,31.82,0,0,0-9.55,5.09,15.74,15.74,0,0,0-3.54,4,12.7,12.7,0,0,0-1.75,5,96.69,96.69,0,0,0-.3,21.84,75.46,75.46,0,0,0,16.39,39.92,67.82,67.82,0,0,0,7.6,7.84,61.67,61.67,0,0,0,8.86,6.39,55.12,55.12,0,0,0,20.47,7.3,50.25,50.25,0,0,0,10.89.41,40.93,40.93,0,0,0,10.64-2.34,56.74,56.74,0,0,0,9.8-4.82c1.56-.95,3.09-1.94,4.61-3l2.27-1.54,1.14-.77.56-.39c.14-.09.1-.07.1-.05h0c-6.56,3-13.28,6.22-20.38,8.11a33.14,33.14,0,0,1-5.44,1c-1.86.13-3.67,0-5.51.07s-3.66,0-5.5-.13a45.78,45.78,0,0,1-5.47-.74,48.07,48.07,0,0,1-19.88-9.15,59.82,59.82,0,0,1-14.56-16.41,69.89,69.89,0,0,1-8.27-20.34,77.49,77.49,0,0,1-2-21.89.3.3,0,0,1,.32-.28.27.27,0,0,1,.15,0,56.63,56.63,0,0,0,12.92,6.11,112,112,0,0,0,13.86,3.74,156.5,156.5,0,0,0,28.55,3.1,152.31,152.31,0,0,0,28.62-2.09,93.8,93.8,0,0,0,13.92-3.47,64.94,64.94,0,0,0,13-5.93,46.53,46.53,0,0,0,5.83-4.13,26.85,26.85,0,0,1,6.17-3.88,13.61,13.61,0,0,1,3.56-1,7,7,0,0,1,3.75.44,4.25,4.25,0,0,1,2.47,2.92,4.6,4.6,0,0,1,.11,1l0,.92a14.21,14.21,0,0,1-.22,1.84,15.24,15.24,0,0,1-3,6.67,35.76,35.76,0,0,1-5.11,5.18c-3.68,3.13-7.54,6-11.16,9.11-1.82,1.56-3.59,3.17-5.29,4.84a11.79,11.79,0,0,0-3.73,5.77,7.52,7.52,0,0,0-.06,3.37,6.5,6.5,0,0,0,.55,1.59,3.61,3.61,0,0,0,.44.68,1.28,1.28,0,0,0,.43.39.26.26,0,0,0-.15.05s0,.07,0,0a.38.38,0,0,0,0-.12v-.23c0-.31,0-.63.06-.94l.14-.92c.06-.31.15-.61.22-.92a13.42,13.42,0,0,1,1.54-3.38,23.1,23.1,0,0,1,5-5.36,52.86,52.86,0,0,1,6-4.13c2.07-1.25,4.18-2.41,6.28-3.56A65.26,65.26,0,0,0,247.09,199.47Z"/><path class="cls-3" d="M188.27,121.93c7.12.89,23,9,25.08,9.87,6.39,2.89,7.64,2.55,7.76,2.89s-8.65,2.47-11.22,2.81c-13.34,1.76-24.33-.79-29-2.92a30.3,30.3,0,0,1,3.44,2.41c1.65,1.41,9,7.82,10.31,8.82a29.72,29.72,0,0,0,5.44,2.7h0a.42.42,0,0,1,.15.07h0c-.68.3-14,6.95-20.81-1.73a37.93,37.93,0,0,1-2.8-5.08,19.59,19.59,0,0,0,4.62,5.47c3.3,2.7,7.77,1.05,10.26-.28a1.54,1.54,0,0,0,.27-2.54c-3.36-2.83-10.93-9.22-13.31-11.28a.21.21,0,0,1,.19-.36,95.54,95.54,0,0,0,18.61,3,16,16,0,0,0,8.69-1.9,2,2,0,0,0,0-3.48,74.74,74.74,0,0,0-12.67-5.63c-6-1.78-15.95-.72-15.44-1s14.39-8.53,14.81-8.78c7.89-4.67,18.61-19.58,23.13-26.19a2,2,0,0,0-1.7-3.16c-5.58.12-15.74.43-20.16,1.19C168,91.38,168,123.53,168,123.53l.05,31.29v4l.1,14c.63,1.9-2.75,1-2.48,0l-.06-49.36c0-.05-2.22-39.48,36.57-39.77,15.43-.11,24.79-1.49,24.17-.63-.49.67-10.52,15.82-15.08,20.36C198.92,115.73,186.57,121.71,188.27,121.93Z"/><path class="cls-3" d="M176.56,141.65a11,11,0,0,1-.82-1.73C175.82,140.1,176.13,140.77,176.56,141.65Z"/><path class="cls-3" d="M180.69,81.5c-3,1.83-5.61,3.41-5,2.77,8.88-8.88-2-20.27-3.69-21.94-1.24-1.24-3-1.3-3.77.3,0,0-3.07,4.61-5.35,14.85a148.56,148.56,0,0,0-2.83,18.91.09.09,0,0,1,0,.07l.05.13a13,13,0,0,1-.43,2.65,24.61,24.61,0,0,0-2-3c-4.07-5.34-10.14-8.63-17.73-9.93-4.42-.78-14.58-1.09-20.17-1.2a2,2,0,0,0-1.69,3.15c4.51,6.62,15.24,21.53,23.12,26.2L156,123.21c.5.23-9.44-.83-15.45,1a73.16,73.16,0,0,0-12.66,5.62,2,2,0,0,0,0,3.48,15.92,15.92,0,0,0,8.68,1.89,93.51,93.51,0,0,0,18.62-3,.21.21,0,0,1,.19.37c-2.39,2-10,8.44-13.31,11.28a1.54,1.54,0,0,0,.26,2.54c2.5,1.33,7,3,10.27.29a19.77,19.77,0,0,0,4.67-5.57,37.33,37.33,0,0,1-2.86,5.16c-6.76,8.69-20.12,2-20.79,1.73h0a.49.49,0,0,1,.14-.06h0a30.18,30.18,0,0,0,5.43-2.69c1.34-1,8.66-7.41,10.3-8.81a31,31,0,0,1,3.45-2.42c-4.65,2.13-15.65,4.67-29,2.92-2.58-.34-11.35-2.44-11.22-2.82s1.37,0,7.77-2.88c2-.91,18-9,25.07-9.88,1.7-.22-10.65-6.19-23-18.46C118,98.27,108,83.11,107.49,82.45c-.63-.86,8.1.52,23.53.64,12.4.08,22.32,3.44,26.91,9.45a196.06,196.06,0,0,1,4.06-24,152.75,152.75,0,0,1,7.94-22.33.26.26,0,0,1,.48,0C172.14,50.26,183.64,81.14,180.69,81.5Z"/><ellipse class="cls-4" cx="170.32" cy="259.98" rx="42.5" ry="4.5"/><path class="cls-4" d="M184.56,280.88V311a2.77,2.77,0,0,1-2.78,2.78h-1A2.77,2.77,0,0,1,178,311v-30.1a2.77,2.77,0,0,0-2.78-2.77h-8.3a2.79,2.79,0,0,1-2.78-2.78v-.6a2.78,2.78,0,0,1,2.78-2.77h28.73a2.77,2.77,0,0,1,2.77,2.77v.6a2.78,2.78,0,0,1-2.77,2.78h-8.3A2.77,2.77,0,0,0,184.56,280.88Z"/><path class="cls-4" d="M203.64,280.32h18.87a2.78,2.78,0,0,1,2.78,2.77v.3a2.78,2.78,0,0,1-2.78,2.78h-12.6a2.77,2.77,0,0,0-2.78,2.78V291a2.77,2.77,0,0,0,2.78,2.77H218a2.79,2.79,0,0,1,2.78,2.78h0a2.79,2.79,0,0,1-2.78,2.78h-8.12a2.77,2.77,0,0,0-2.78,2.77v3a2.77,2.77,0,0,0,2.78,2.78h12.9a2.78,2.78,0,0,1,2.78,2.78V311a2.78,2.78,0,0,1-2.78,2.78H203.64a2.77,2.77,0,0,1-2.78-2.78V283.09A2.77,2.77,0,0,1,203.64,280.32Z"/><path class="cls-4" d="M238.23,307.69,236.65,312a2.79,2.79,0,0,1-2.61,1.81h-.39a2.78,2.78,0,0,1-2.59-3.79L242,282.08a2.78,2.78,0,0,1,2.59-1.76h3.79a2.79,2.79,0,0,1,2.59,1.76L261.84,310a2.77,2.77,0,0,1-2.58,3.79h-.51a2.79,2.79,0,0,1-2.61-1.81l-1.58-4.26a2.77,2.77,0,0,0-2.6-1.81H240.83A2.77,2.77,0,0,0,238.23,307.69Zm9.07-17a1,1,0,0,0-1.92,0L243.46,296c-.75,2,.76,3.19,2.93,3.19h0c2.17,0,3.67-1.16,2.91-3.18Z"/><path class="cls-5" d="M128.27,303.21a2.71,2.71,0,0,1,1.4,4.32c-3.09,3.9-6.85,6.36-12.85,6.36-10.39,0-18.86-7.28-18.86-17.32s8.47-17.44,18.8-17.44a15.12,15.12,0,0,1,13,6.52,2.71,2.71,0,0,1-1.46,4.24l-.79.22a2.73,2.73,0,0,1-2.85-1,10.75,10.75,0,0,0-8.83-4.25c-6.81,0-11.53,4.77-11.53,11.64s4.84,11.65,11.47,11.65a11.22,11.22,0,0,0,9-4.12,2.78,2.78,0,0,1,2.87-1Z"/><path class="cls-5" d="M157.08,295.56c3.41.77,7,3.28,7,8.18,0,5.2-3,9.5-11,9.5H141.32c-1.49,0-3.71-1.22-3.71-2.71v-28a2.71,2.71,0,0,1,2.71-2.7h11.45c6.15,0,10.33,4,10.33,8.54a6.91,6.91,0,0,1-5,7Zm-6.5-2c2.8,0,5.25-1.44,5.25-4.3,0-2.33-1.79-4.18-5.2-4.18h-4a2.7,2.7,0,0,0-2.7,2.7v3.07a2.71,2.71,0,0,0,2.7,2.71ZM151.83,308c3.52,0,5.79-1.73,5.79-4.66s-2.45-4.9-5.91-4.9h-5.12a2.7,2.7,0,0,0-2.7,2.71v4.14a2.7,2.7,0,0,0,2.7,2.71Z"/></svg>