<svg id="Final_" data-name="Final*" xmlns="http://www.w3.org/2000/svg" viewBox="0 0 360 360"><defs><style>.cls-1{fill:#231f20;}.cls-2,.cls-3,.cls-4{fill:#fbf8ee;}.cls-3{font-size:11px;font-family:Novecentosanscondensed-Medium, Novecentosanscondensed Medium;font-weight:500;}.cls-4{stroke:#fff;}.cls-4,.cls-5{stroke-miterlimit:10;}.cls-5{fill:#d5e3a6;stroke:#d5e3a6;}</style></defs><rect class="cls-1" x="1.82" y="1.28" width="360" height="360"/><path class="cls-2" d="M124.42,268.52a.37.37,0,0,1,.24.49,13.64,13.64,0,0,1-12.93,8.57c-8.12,0-14.26-6.09-14.26-15.33s6.1-15.21,14.3-15.21a13.35,13.35,0,0,1,12.56,7.81.36.36,0,0,1-.23.49l-3.66,1a.34.34,0,0,1-.4-.16,9.42,9.42,0,0,0-8.42-4.8c-5.79,0-9.75,4.24-9.75,10.88s4.16,10.92,9.67,10.92a9.57,9.57,0,0,0,8.87-5.53.36.36,0,0,1,.41-.19Z"/><path class="cls-2" d="M151.08,261.36a7.22,7.22,0,0,1,5.87,7.36c0,4.83-3.25,8.31-9.63,8.31H136.54a.36.36,0,0,1-.36-.35V248a.36.36,0,0,1,.36-.35H146.8c5.07,0,8.36,3.27,8.36,7.39a6.14,6.14,0,0,1-4.08,6.18Zm-4.87-1.47c2.65,0,4.55-1.51,4.55-4.2,0-2.48-1.78-4.16-4.79-4.16H140.9a.36.36,0,0,0-.36.36v7.65a.36.36,0,0,0,.36.35Zm.79,13.24c3.29,0,5.35-1.68,5.35-4.75s-2.38-5-5.39-5H140.9a.36.36,0,0,0-.36.36v9a.36.36,0,0,0,.36.36Z"/><path class="cls-2" d="M178.7,252.31v24.37a.36.36,0,0,1-.36.35H174.7a.36.36,0,0,1-.36-.35V252.31A.36.36,0,0,0,174,252H165.5a.35.35,0,0,1-.35-.35V248a.35.35,0,0,1,.35-.35h22a.35.35,0,0,1,.35.35v3.62a.35.35,0,0,1-.35.35h-8.49A.36.36,0,0,0,178.7,252.31Z"/><path class="cls-2" d="M199.54,247.63H218a.36.36,0,0,1,.36.35v3.62a.36.36,0,0,1-.36.35H203.9a.36.36,0,0,0-.36.36v7a.36.36,0,0,0,.36.35h10.66a.36.36,0,0,1,.35.36v3.61a.36.36,0,0,1-.35.36H203.9a.36.36,0,0,0-.36.35v8a.36.36,0,0,0,.36.36h14.22a.35.35,0,0,1,.36.35v3.62a.36.36,0,0,1-.36.35H199.54a.36.36,0,0,1-.36-.35V248A.36.36,0,0,1,199.54,247.63Z"/><path class="cls-2" d="M235.39,270.41,233,276.8a.36.36,0,0,1-.33.23h-3.83a.36.36,0,0,1-.34-.48l11.18-28.7a.35.35,0,0,1,.33-.22h4.39a.36.36,0,0,1,.33.22l11.14,28.7a.36.36,0,0,1-.34.48h-3.91a.36.36,0,0,1-.33-.23l-2.4-6.38a.37.37,0,0,0-.33-.24H235.72A.37.37,0,0,0,235.39,270.41Zm9.08-11.52c-1-2.61-2.26-6-2.3-6h-.11s-1.35,3.4-2.34,6l-2.48,6.61a.36.36,0,0,0,.34.48h9.07a.35.35,0,0,0,.33-.48Z"/><text class="cls-3" transform="translate(96.08 233.15)">ESTD</text><text class="cls-3" transform="translate(237.72 233.52)">2021</text><path class="cls-4" d="M172.5,167.15v-.21h.15"/><path class="cls-2" d="M208.08,170.73c0,7.12-12.32,10.72-35.43,10.72-14.54,0-26.91-4.22-26.91-9S156.27,165,170.11,165h5.09c11.65,0,20.36,2.84,20.36,5.62,0,3.82-13.49,4.41-24.16,4.13-1,0-1.08-1.21-1.08-1.73l2.64,0c11.18,0,17.34-.34,17.34-2.74s-9-3.49-20-3.49h-.19s0,0,0-.06c-10.46.3-18.31,1.69-18.31,5.16,0,2.69,8.85,6.67,23.11,6.67.47,0,1.67,0,1.67,0,15.73,0,24.27-4,24.27-8.42,0-4.74-14.29-7.92-29.45-7.92h.92c0-.1-1.14-.21-1.14-.32V160.1l.18-.18C192.6,159.88,208.08,164.47,208.08,170.73Z"/><path class="cls-2" d="M212.09,208c0,1.65-1.69-4.77,1.8-9,5-6,10.35-8.59,8.69-16-.35-1.57-2.64-4.79-8-2-21,10.93-63,8.22-78.31,1.05a14.15,14.15,0,0,0,.09,2.43c2.16,24.43,16.19,45.74,37.06,45.74h4.49a27.59,27.59,0,0,0,16.6-6.33c.14-.12-10.22,9.55-20.69,9.42-24-.29-43.41-22.63-43.41-50.57a53.4,53.4,0,0,1,.49-7.72c0-8.86,15.49-15.27,40.21-15.27l1.36,0,.19,2.83c-.59,0-1.16-.37-1.73-.36-22.62.08-31,5.17-31,11.32,0,6.42,12.36,11.62,36.57,11.62,34.56,0,36.81-12.94,44.67-12.94,8.3,0,8.3,5.76,8.3,10.51C229.5,194.24,212.09,196.53,212.09,208Z"/><path class="cls-4" d="M186.86,136.23c5,.63,16.36,6.37,17.8,7,4.53,2,5.42,1.8,5.5,2s-6.13,1.75-8,2c-9.46,1.25-17.27-.56-20.57-2.07a20.65,20.65,0,0,1,2.44,1.71c1.17,1,6.36,5.55,7.32,6.25a20.75,20.75,0,0,0,3.85,1.92h0l.1,0s0,0,0,0c-.48.21-9.37,4.16-14.76-1.23a25.22,25.22,0,0,1-2.58-4.36,19.34,19.34,0,0,0,3.87,4.64c2.34,1.92,5.51.74,7.28-.2a1.09,1.09,0,0,0,.19-1.8c-2.38-2-8.52-7.15-10.21-8.61a7.63,7.63,0,0,1,.9.35,68,68,0,0,0,13.21,2.15,11.29,11.29,0,0,0,6.17-1.35,1.4,1.4,0,0,0,0-2.46,52.92,52.92,0,0,0-9-4c-4.27-1.26-12.21-1-11.85-1.13s11.11-5.61,11.4-5.78c5.6-3.32,13.21-13.9,16.42-18.59a1.44,1.44,0,0,0-1.21-2.24,73.09,73.09,0,0,0-14.31.85c-18.36,3.16-18.4,26-18.4,26l0,22.21v2.82l.08,11.07c1.23.61-1.65,1.42-1.77,0l0-36.14s-1.57-28,26-28.22c10.95-.08,17.59-1.06,17.15-.45s-7.47,11.23-10.7,14.45C194.42,131.83,185.65,136.07,186.86,136.23Z"/><path class="cls-5" d="M181.48,107.54c-2.16,1.29-4,2.41-3.53,2,6.3-6.3-1.43-14.38-2.61-15.57-.89-.88-2.16-.92-2.68.22,0,0-2.18,3.27-3.8,10.54a104.17,104.17,0,0,0-2,13.42,0,0,0,0,1,0,0l0,.1a9.16,9.16,0,0,1-.31,1.88,16.11,16.11,0,0,0-1.42-2.16c-2.89-3.79-7.19-6.12-12.58-7a132.2,132.2,0,0,0-14.32-.85,1.43,1.43,0,0,0-1.2,2.24c3.21,4.7,10.82,15.28,16.41,18.59L164,137.14c.36.16-6.69-.59-11,.68a51.74,51.74,0,0,0-9,4,1.41,1.41,0,0,0,0,2.47,11.37,11.37,0,0,0,6.16,1.34,67,67,0,0,0,13.22-2.16.15.15,0,0,1,.13.26c-1.69,1.46-7.06,6-9.44,8a1.08,1.08,0,0,0,.19,1.8c1.77.95,4.94,2.12,7.28.2a13.84,13.84,0,0,0,3.31-3.95,25,25,0,0,1-2,3.67c-4.79,6.16-14.27,1.45-14.75,1.23,0,0,0,0,0,0a.28.28,0,0,1,.1,0h0a22.3,22.3,0,0,0,3.86-1.91c.94-.72,6.14-5.26,7.3-6.26a22.59,22.59,0,0,1,2.45-1.71c-3.3,1.51-11.1,3.31-20.57,2.07-1.83-.24-8.06-1.73-8-2s1,0,5.51-2c1.43-.65,12.74-6.37,17.79-7,1.21-.15-7.55-4.39-16.31-13.1-3.23-3.21-10.35-14-10.7-14.44s5.75.37,16.7.45c8.8.06,15.84,2.45,19.1,6.71a138.9,138.9,0,0,1,2.88-17,107.67,107.67,0,0,1,5.64-15.85.18.18,0,0,1,.34,0C175.41,85.37,183.57,107.28,181.48,107.54Z"/><path class="cls-4" d="M202.28,234.2c0,1.77-11.5,3.2-28.16,3.2S145,236,145,234.2s12.5-3.19,29.16-3.19S202.28,232.44,202.28,234.2Z"/></svg>