<svg id="Layer_1" data-name="Layer 1" xmlns="http://www.w3.org/2000/svg" viewBox="0 0 1242 636.66"><defs><style>.cls-1{fill:#fffbf1;}.cls-2{fill:#fbf8ee;stroke:#fff;}.cls-2,.cls-3,.cls-6{stroke-miterlimit:10;}.cls-3,.cls-4,.cls-6{fill:#6f8263;stroke:#6f8263;}.cls-4,.cls-5{stroke-linejoin:round;stroke-width:3.5px;}.cls-5{fill:#d5e3a6;stroke:#d5e3a6;}.cls-6{stroke-width:1.5px;}</style></defs><rect class="cls-1" width="1242" height="636.66"/><path class="cls-2" d="M715.72,336.51"/><path class="cls-2" d="M558.48,346.11"/><path class="cls-2" d="M558.44,327.14"/><path class="cls-3" d="M703.89,338.73c0,21-36.31,31.62-104.44,31.62-42.87,0-79.34-12.45-79.34-26.62,0-13.38,28.72-21.36,67.21-22v7.35c-28.48,1.15-49.33,3.33-49.33,13.06,0,9.26,26.08,19.66,68.13,19.66,1.41,0,4.93-.12,4.93-.12,46.38,0,71.56-11.86,71.56-24.81,0-14-42.12-23.36-86.83-23.36h2.72c0-.1-5.77.07-6.59.08l0-4.27v-3.5H599C655.09,305.87,703.89,320.6,703.89,338.73Z"/><path class="cls-3" d="M667,338.34c0,13.34-47.63,13.11-79.11,13.11-2.9,0-2.08-5.33-2.08-7a8.27,8.27,0,0,1,1.56-.06c1.19,0,2.91,0,4.75,0,3.53,0,7.4.1,8.25.1,32.95,0,51.12-1.92,51.12-7.09,0-7.1-25.46-8.44-58-8.44L592,329c-1.58.05-3.13.1-4.67.17v-7.35c1.54,0,3.07,0,4.63,0h15C641.32,321.75,667,330.13,667,338.34Z"/><path class="cls-3" d="M767.06,374.09c0,34-51.33,40.72-51.33,74.59,0,4.88-5-14.07,5.32-26.51,14.7-17.79,30.49-25.31,25.62-47.22-1-4.63-7.8-14.12-23.57-5.9-60.64,31.59-180.78,24.53-228.11,4.31a2,2,0,0,0-2.81,1.89c.05,1.25.15,2.45.31,4.07,6.37,72,47.72,134.83,109.26,134.83H615c16.51,0,36.21-7.74,48.87-18.57a132,132,0,0,1-33,21.34c-8.52,3.74-18.22,6.49-27.93,6.37a113.91,113.91,0,0,1-35.14-6h0c-53.6-18.08-92.85-74.95-92.85-143.1a157.77,157.77,0,0,1,1.44-22.77c0-25.22,42.4-44.29,110.82-45.56,1.52,0,3.17.56,4.7.55v3l0,4.27c-1.56,0-3.1,0-4.61.06C526,314.94,503.06,329.53,503.06,347c0,18.93,36.44,34.26,107.82,34.26,101.89,0,108.54-38.14,131.7-38.14C767.06,343.11,767.06,360.09,767.06,374.09Z"/><path class="cls-4" d="M630.79,246.25C644.45,248,675,263.47,678.92,265.2c12.27,5.54,14.66,4.89,14.89,5.54s-16.6,4.75-21.55,5.4c-25.58,3.38-46.69-1.52-55.63-5.61a56.92,56.92,0,0,1,6.62,4.63c3.15,2.71,17.19,15,19.77,16.92,3.15,2.35,9,4.55,10.43,5.18,0,0,0,0,0,0a.79.79,0,0,1,.26.12s0,0,0,0c-1.3.58-26,10.57-39.93-3.32-1.65-1.65-5.43-8.52-7-11.79a52.73,52.73,0,0,0,10.48,12.55c6.33,5.18,13.9,2,18.68-.54a3,3,0,0,0,.53-4.88c-6.45-5.43-22.06-19.33-26.63-23.28a22.1,22.1,0,0,1,2.45.94,184,184,0,0,0,35.73,5.83,30.78,30.78,0,0,0,16.68-3.65,3.81,3.81,0,0,0-.06-6.68c-6-3.23-16-8.32-24.31-10.79-7.11-2.11-17.94-2.62-25-2.8a1.82,1.82,0,0,1-.77-3.45c8.86-4.48,24-12.12,24.58-12.45,15.15-9,35.73-37.59,44.42-50.28a3.91,3.91,0,0,0-3.27-6.06,197.75,197.75,0,0,0-38.71,2.29c-49.68,8.56-49.77,70.26-49.77,70.26l.09,57.09v3l0,4.27V317l0,4.74,0,5.21.11,17.46v2.52c0,2.36-4.76,2.4-4.76.09v-2.62l0-17.28V306.47l-.06-57.19c0-.09-4.26-75.78,70.19-76.32,29.62-.22,47.6-2.87,46.41-1.23-1,1.3-20.21,30.38-29,39.08C651.23,234.35,627.51,245.83,630.79,246.25Z"/><path class="cls-5" d="M617.24,169.66c-5.84,3.49-10.78,6.52-9.55,5.3,17-17.05-3.87-38.9-7.08-42.11-2.39-2.38-5.83-2.49-7.24.58,0,0-5.9,8.85-10.27,28.5-2.67,12.08-5.32,30.85-5.43,36.31a.15.15,0,0,1-.07.12,2.5,2.5,0,0,0,.09.25s-.34,4.32-.83,5.1a46.54,46.54,0,0,0-3.85-5.85c-7.81-10.24-19.46-16.56-34-19.07-8.49-1.48-28-2.07-38.72-2.29a3.86,3.86,0,0,0-3.25,6.05c8.66,12.71,29.26,41.32,44.38,50.29.58.33,14.28,8.46,22.46,13.31a1.83,1.83,0,0,1-1,3.4c-6.39-.15-15.86,0-22.69,2-8.58,2.53-19,7.89-24.87,11.1a3.46,3.46,0,0,0-.13,6,30.33,30.33,0,0,0,17.3,4,179.93,179.93,0,0,0,35.74-5.83.41.41,0,0,1,.36.71c-4.59,3.93-19.1,16.21-25.54,21.66a3,3,0,0,0,.5,4.87c4.8,2.55,13.38,5.72,19.71.54a37.79,37.79,0,0,0,9-10.68c-1.59,3.28-4,8-5.49,9.91-13,16.68-38.61,3.91-39.91,3.32,0,0,0,0,0,0l.27-.13h0c1.44-.64,7.29-2.84,10.43-5.17,2.57-1.93,16.63-14.22,19.77-16.91a60.6,60.6,0,0,1,6.62-4.64c-8.93,4.1-30,9-55.65,5.61-4.95-.65-21.79-4.69-21.53-5.41s2.63,0,14.91-5.52c3.88-1.76,34.46-17.24,48.12-19,3.27-.41-20.43-11.87-44.12-35.43-8.73-8.7-28-37.78-28.93-39.06-1.21-1.65,15.56,1,45.16,1.22,23.81.17,42.86,6.61,51.66,18.14,1.16-10.25,3.83-30.74,7.78-46A293.69,293.69,0,0,1,596.59,102a.51.51,0,0,1,.92,0C600.81,109.69,622.89,169,617.24,169.66Z"/><path class="cls-6" d="M677.77,525.87c0,5.2-32.1,9.41-78.58,9.41s-81.38-4.21-81.38-9.41,34.89-9.42,81.38-9.42S677.77,520.67,677.77,525.87Z"/></svg>