<svg id="Final_" data-name="Final*" xmlns="http://www.w3.org/2000/svg" viewBox="0 0 360 360"><defs><style>.cls-1,.cls-11,.cls-2{fill:none;}.cls-1,.cls-11,.cls-2,.cls-4,.cls-6,.cls-8{stroke:#6f8263;}.cls-1,.cls-10,.cls-2,.cls-3,.cls-8,.cls-9{stroke-miterlimit:10;}.cls-1,.cls-10,.cls-11,.cls-3{stroke-width:2px;}.cls-2{stroke-width:4px;}.cls-12,.cls-3,.cls-4,.cls-5,.cls-6,.cls-8{fill:#6f8263;}.cls-3,.cls-7{stroke:#d5e3a6;}.cls-11,.cls-4,.cls-6,.cls-7{stroke-linejoin:round;}.cls-11,.cls-6,.cls-7{stroke-linecap:round;}.cls-6,.cls-7{stroke-width:3.3px;}.cls-7{fill:#d5e3a6;}.cls-10,.cls-9{fill:#fbf8ee;stroke:#fbf8ee;}.cls-12{font-size:13px;font-family:Novecentosanscondensed-Medium, Novecentosanscondensed Medium;font-weight:500;}</style></defs><rect class="cls-1" x="92.26" y="55.31" width="180" height="250.38" rx="4.23"/><rect class="cls-2" x="83.26" y="47.27" width="198" height="265.47" rx="10.13"/><rect class="cls-3" x="65.26" y="228.81" width="229.47" height="56.35" rx="6.65"/><path class="cls-4" d="M171.76,148.58l-2.62,0v-.05h2.62Z"/><path class="cls-5" d="M171.84,150.92h-.15v-.21h.15Z"/><path class="cls-5" d="M172.19,151.24a1.24,1.24,0,0,1-.5,0l-.38-.14.11-.14a.19.19,0,0,0,.05-.21l-.08-.17.27,0a.51.51,0,0,0,.18-.11l.1-.08.23.4a.77.77,0,0,1,.08.28C172.25,151.07,172.29,151.22,172.19,151.24Zm-.69-.63c-.1-.05-.07,0-.07,0s0,0,.08,0l.33.33s-.08-.09-.12-.1l.19-.22a.19.19,0,0,0,.05.21l-.27-.27S171.6,150.59,171.5,150.61Z"/><path class="cls-5" d="M207.27,154.33c0,5.84-13.55,10.72-30.87,10.72-3.09,0-3.09-.1-6.31-.1-14.22,0-25.16-4.12-25.16-8.93S155.48,149,169.32,149l4.94,0c11.66,0,20.49,1.48,20.49,4.26,0,3.17-9,5.26-23.06,5.26-1,0-1.21-1.13-1.19-1.6a11.83,11.83,0,0,0,.07-1.23h1.58c11.18,0,17.34-.34,17.34-2.74s-9-2.49-20-2.49h-.19s0,0,0-.06c-10.46.3-18.31,1.69-18.31,5.16,0,4,10.35,5.76,23.11,5.67.47,0,1.67,0,1.67,0,13.59-.38,24.27-3,24.27-7.42,0-4.74-12.28-7.92-27.45-7.92h-.07c0-.11-.15-.21-.15-.33V143.7l.19-.18C193.8,143.48,207.27,148.07,207.27,154.33Z"/><path class="cls-5" d="M207.73,154.33a6,6,0,0,1-2.39,4.34,17.81,17.81,0,0,1-4.11,2.52,42.46,42.46,0,0,1-9.09,2.8,82.38,82.38,0,0,1-18.87,1.39c-1.56-.06-3.12,0-4.71-.07s-3.16-.13-4.73-.27a53,53,0,0,1-9.34-1.66,30.41,30.41,0,0,1-4.48-1.63,13.12,13.12,0,0,1-4-2.67,5.11,5.11,0,0,1-1.27-2.14,3.42,3.42,0,0,1,.28-2.51,5.25,5.25,0,0,1,1.69-1.81,11.49,11.49,0,0,1,2.12-1.15,35.6,35.6,0,0,1,9.24-2.16,87.62,87.62,0,0,1,9.44-.59c3.15,0,6.28-.09,9.44,0a85.05,85.05,0,0,1,9.43.67,33.65,33.65,0,0,1,4.66.91,12.85,12.85,0,0,1,2.25.86,4.87,4.87,0,0,1,1,.7A2,2,0,0,1,195,153a2.5,2.5,0,0,1-1.18,2.19,8.55,8.55,0,0,1-2.13,1.13,26.37,26.37,0,0,1-4.59,1.23,70.82,70.82,0,0,1-9.41,1c-1.57.08-3.14.12-4.72.13h-1.18a1.26,1.26,0,0,1-1.16-.63,2.21,2.21,0,0,1-.3-1.25c0-.4.08-.8.06-1.14a.21.21,0,0,1,.19-.23h0c3.39,0,6.8,0,10.19-.14a44.69,44.69,0,0,0,5.05-.46,9.87,9.87,0,0,0,2.38-.67,2,2,0,0,0,.89-.69.89.89,0,0,0,0-.95,3.76,3.76,0,0,0-2.09-1,20.5,20.5,0,0,0-2.49-.4c-1.67-.18-3.37-.26-5.07-.32-3.39-.1-6.79-.09-10.19-.09a.26.26,0,0,1-.26-.27.17.17,0,0,1,0-.07h0l0-.07.26.35a68.39,68.39,0,0,0-12.8,1.35,15.44,15.44,0,0,0-3,1,3.86,3.86,0,0,0-2.14,2,2.35,2.35,0,0,0,1,2.49,9.58,9.58,0,0,0,2.78,1.41,33.23,33.23,0,0,0,6.26,1.34c2.13.28,4.28.45,6.43.54a104.77,104.77,0,0,0,12.9-.2,60.48,60.48,0,0,0,12.66-2.13,12.52,12.52,0,0,0,5.47-2.91,2.51,2.51,0,0,0,.58-2.61,4.85,4.85,0,0,0-2-2.17,20.9,20.9,0,0,0-5.85-2.4,51.45,51.45,0,0,0-6.29-1.25,92,92,0,0,0-12.85-.81l-.45-.54c0,.18,0,.22,0,.2l-.09-.13a1.12,1.12,0,0,1-.08-.18.57.57,0,0,1,0-.14V143.7a.5.5,0,0,1,.14-.33l.18-.18a.45.45,0,0,1,.32-.13,105.52,105.52,0,0,1,19.27,1.5,43.23,43.23,0,0,1,9.34,2.72,17.17,17.17,0,0,1,4.22,2.57A6,6,0,0,1,207.73,154.33Zm-.93,0a5.1,5.1,0,0,0-2-3.76,15.72,15.72,0,0,0-4-2.41,43.23,43.23,0,0,0-9.13-2.62A105.9,105.9,0,0,0,172.57,144l.32-.13-.18.18.13-.32v1.76s0-.06,0-.07l0-.06.06.09a.59.59,0,0,1,.1.45l-.44-.53a92.37,92.37,0,0,1,13,.88,53.55,53.55,0,0,1,6.39,1.29A21.76,21.76,0,0,1,198,150a5.62,5.62,0,0,1,2.28,2.57,3.1,3.1,0,0,1,.11,1.81,3.63,3.63,0,0,1-.85,1.57,13.12,13.12,0,0,1-5.83,3.12,61.6,61.6,0,0,1-12.83,2.11,108.12,108.12,0,0,1-13,.15c-2.17-.1-4.33-.27-6.48-.56a34,34,0,0,1-6.37-1.4,9.76,9.76,0,0,1-3-1.51,3.64,3.64,0,0,1-1.11-1.34,2.62,2.62,0,0,1-.13-1.79,4.4,4.4,0,0,1,2.45-2.33,16.81,16.81,0,0,1,3.12-1,68.66,68.66,0,0,1,12.92-1.33.28.28,0,0,1,.28.26s0,0,0,.08h0l0,.07-.25-.35c3.4,0,6.81,0,10.21.12,1.7.06,3.41.14,5.11.33a22,22,0,0,1,2.54.42,9.22,9.22,0,0,1,1.26.4,2.48,2.48,0,0,1,1.12.83,1.35,1.35,0,0,1-.05,1.46,2.48,2.48,0,0,1-1.09.87,10.18,10.18,0,0,1-2.51.69,43.92,43.92,0,0,1-5.1.46c-3.41.13-6.81.14-10.22.11l.22-.23a11.08,11.08,0,0,1-.07,1.2,1.85,1.85,0,0,0,.25,1,.81.81,0,0,0,.8.43h1.18c1.57,0,3.14-.06,4.7-.14a70.94,70.94,0,0,0,9.34-1,25.43,25.43,0,0,0,4.51-1.22,8.07,8.07,0,0,0,2-1.07,2,2,0,0,0,1-1.75c-.08-.65-.77-1.13-1.42-1.48a11.59,11.59,0,0,0-2.15-.81,33.85,33.85,0,0,0-4.59-.9,86.57,86.57,0,0,0-9.38-.63c-3.13-.07-6.29,0-9.42,0a91.73,91.73,0,0,0-9.38.61,34.78,34.78,0,0,0-9.07,2.14,7,7,0,0,0-3.51,2.7,2.81,2.81,0,0,0-.22,2.07,4.35,4.35,0,0,0,1.13,1.86,12.52,12.52,0,0,0,3.81,2.52,28.88,28.88,0,0,0,4.38,1.57,52.3,52.3,0,0,0,9.22,1.59c1.56.14,3.12.22,4.69.25s3.14,0,4.72.05A81.13,81.13,0,0,0,192,163.16a41.84,41.84,0,0,0,8.88-2.78,16.76,16.76,0,0,0,3.89-2.4A5.1,5.1,0,0,0,206.8,154.33Z"/><path class="cls-5" d="M228,175.3c-4.73,3.44-17.86,8-17.86,16.13,0,1.65-4.13-3.17.81-8.11,9.52-9.53,18-12.23,18-20.5,0-2.91-4.22-5-11.18.79-4.7,3.88-16.25,10.95-41.41,10.95-17.12,0-33.6-3.94-41.46-9.28a18.45,18.45,0,0,0-.08,2.88c2.16,24.43,16.92,45.67,37.79,45.67h4.49c5.61,0,14.38-4.21,19.25-6.46a.14.14,0,0,1,.14.25c-5.91,4-13,9.43-23.48,9.3-24-.29-43.41-22.64-43.41-50.57a50.88,50.88,0,0,1,.49-7.72c-.16-10.69,15.49-15.27,40.21-15.27l1.36,0,.19,2.82c-.59,0-1.16-.36-1.73-.35-22.62.08-31,5.17-31,11.32,0,6.42,14.49,11.62,37.57,11.62,41.45,0,32.54-16.85,48.53-16.85,8.49,0,10.58,5.83,10.58,10.58S234.14,170.82,228,175.3Z"/><path class="cls-5" d="M228.27,175.67a46.14,46.14,0,0,1-4.45,2.65c-1.49.82-3,1.63-4.43,2.5-2.86,1.76-5.73,3.72-7.53,6.48a8.75,8.75,0,0,0-1,2.2,7.69,7.69,0,0,0-.23,1.18c0,.2,0,.4,0,.6v.15a.86.86,0,0,1,0,.26.64.64,0,0,1-.22.37.62.62,0,0,1-.51.13,1.4,1.4,0,0,1-.76-.55,3.69,3.69,0,0,1-.39-.61,5.67,5.67,0,0,1-.46-1.31,6.13,6.13,0,0,1,.06-2.73,9.06,9.06,0,0,1,2.85-4.44c1.22-1.2,2.49-2.35,3.8-3.47,2.59-2.23,5.35-4.26,7.93-6.45a24.74,24.74,0,0,0,3.53-3.56,10.12,10.12,0,0,0,2-4.43,9.91,9.91,0,0,0,.15-1.22l0-.61a2.51,2.51,0,0,0-.07-.55,2.32,2.32,0,0,0-1.36-1.6,6.07,6.07,0,0,0-4.64.41,18.87,18.87,0,0,0-4.23,2.65,34.41,34.41,0,0,1-4.21,3,56.05,56.05,0,0,1-19.34,6.72,107.55,107.55,0,0,1-20.43,1.45,110.56,110.56,0,0,1-20.36-2.25,79.09,79.09,0,0,1-9.9-2.68,42.22,42.22,0,0,1-9.28-4.41l.47-.23c0,.65-.1,1.29-.11,1.92a12.22,12.22,0,0,0,.13,1.9c.12,1.29.3,2.57.49,3.84a65.3,65.3,0,0,0,1.65,7.56,59,59,0,0,0,6,14.22,43.89,43.89,0,0,0,9.92,11.74A31.28,31.28,0,0,0,167,213.06a36.5,36.5,0,0,0,7.69.54,38,38,0,0,0,3.86-.1,23.29,23.29,0,0,0,3.77-.75,60.27,60.27,0,0,0,7.29-2.6c1.19-.5,2.37-1,3.55-1.56l1.76-.81.88-.4.46-.21a.34.34,0,0,1,.46.23.36.36,0,0,1,0,.3.41.41,0,0,1-.1.09l-.05,0c-4.25,2.91-8.57,5.95-13.53,7.65a29,29,0,0,1-7.65,1.6,36.26,36.26,0,0,1-7.79-.38,39.33,39.33,0,0,1-14.6-5.31,45.16,45.16,0,0,1-11.72-10.23,54.16,54.16,0,0,1-11.63-28.54,68.21,68.21,0,0,1,.24-15.58,10.43,10.43,0,0,1,4-6.71,23.47,23.47,0,0,1,6.93-3.68,66.17,66.17,0,0,1,15.3-3c5.17-.5,10.37-.62,15.55-.64a.36.36,0,0,1,.37.34l.19,2.82a.37.37,0,0,1-.34.39h0a5.35,5.35,0,0,1-1.33-.3,1.64,1.64,0,0,0-.55,0h-.64c-.86,0-1.71,0-2.57.05-1.71,0-3.42.13-5.12.26a67.65,67.65,0,0,0-10.14,1.44c-3.28.79-6.61,1.86-9.21,4a7.11,7.11,0,0,0-2.61,4,4.78,4.78,0,0,0,0,2.35,5.53,5.53,0,0,0,1.21,2,14,14,0,0,0,4.05,2.88,31.49,31.49,0,0,0,4.72,1.86,64,64,0,0,0,10,2.17,125.13,125.13,0,0,0,20.48,1c6.82-.22,13.72-.78,20.19-2.9a28.93,28.93,0,0,0,8.95-4.65,41.86,41.86,0,0,0,3.76-3.43,29.58,29.58,0,0,1,3.89-3.49,12,12,0,0,1,4.89-2.06,18.35,18.35,0,0,1,5.28-.21,11,11,0,0,1,5,1.77,9,9,0,0,1,3.27,4.24,13.67,13.67,0,0,1,.85,5.24,13.17,13.17,0,0,1-1,5.2,14.4,14.4,0,0,1-3,4.34A31.78,31.78,0,0,1,228.27,175.67Zm-.55-.75c2.71-2,5.37-4.29,6.69-7.34a12.35,12.35,0,0,0,.93-4.84,12.67,12.67,0,0,0-.8-4.86,8,8,0,0,0-2.92-3.79A10,10,0,0,0,227,152.5c-3.3-.29-6.81.11-9.5,2.08a29.07,29.07,0,0,0-3.77,3.38,42.9,42.9,0,0,1-3.85,3.5,29.83,29.83,0,0,1-9.25,4.78c-6.63,2.16-13.59,2.7-20.46,2.92a127,127,0,0,1-20.62-1.1,64.15,64.15,0,0,1-10.12-2.22,31.86,31.86,0,0,1-4.84-1.92,14.68,14.68,0,0,1-4.29-3.07,6.29,6.29,0,0,1-1.38-2.36,5.46,5.46,0,0,1-.06-2.75,8,8,0,0,1,2.89-4.46c2.79-2.23,6.2-3.3,9.55-4.1a68.34,68.34,0,0,1,10.25-1.44c1.72-.13,3.44-.21,5.16-.25.86,0,1.72,0,2.58,0H170a2.66,2.66,0,0,1,.73.07,6.29,6.29,0,0,0,1.16.29l-.37.39-.18-2.83.36.35c-5.17,0-10.34.12-15.49.61a65.18,65.18,0,0,0-15.13,3,22.69,22.69,0,0,0-6.74,3.56,9.76,9.76,0,0,0-3.79,6.29,67.41,67.41,0,0,0-.26,15.42,53.49,53.49,0,0,0,11.44,28.26c6.45,8,15.73,13.9,26,15.42a36,36,0,0,0,7.69.38,28.91,28.91,0,0,0,7.53-1.55c4.89-1.67,9.18-4.66,13.45-7.58.11-.09,0,0,0,0s0,0,.09,0l-.43.19-.88.41-1.77.82c-1.18.54-2.36,1.06-3.56,1.57a60.43,60.43,0,0,1-7.34,2.63,22.6,22.6,0,0,1-3.83.77c-1.32.15-2.62.09-3.91.11a37.63,37.63,0,0,1-7.78-.53,31.72,31.72,0,0,1-14-6.66A44.22,44.22,0,0,1,142.88,195a59.19,59.19,0,0,1-6.06-14.34,65.94,65.94,0,0,1-1.68-7.62c-.19-1.28-.38-2.57-.51-3.86a15.93,15.93,0,0,1-.13-2c0-.66.07-1.31.11-2a.29.29,0,0,1,.31-.28.3.3,0,0,1,.16.05,41.44,41.44,0,0,0,9.15,4.32,79,79,0,0,0,9.82,2.64,109.3,109.3,0,0,0,20.24,2.19,106.91,106.91,0,0,0,20.3-1.47A55.13,55.13,0,0,0,213.65,166a33,33,0,0,0,4.12-2.92,19.17,19.17,0,0,1,4.41-2.77,9.6,9.6,0,0,1,2.55-.74,5.1,5.1,0,0,1,2.72.32,3.09,3.09,0,0,1,1.82,2.15,3.55,3.55,0,0,1,.09.72l0,.67a11.41,11.41,0,0,1-.15,1.31,11,11,0,0,1-2.17,4.79,24.92,24.92,0,0,1-3.64,3.69c-2.62,2.23-5.35,4.25-7.92,6.47-1.29,1.1-2.54,2.25-3.75,3.43a8.33,8.33,0,0,0-2.61,4,5.44,5.44,0,0,0,0,2.34,4.47,4.47,0,0,0,.38,1.1,2.61,2.61,0,0,0,.3.46,1.3,1.3,0,0,0,.23.23.29.29,0,0,0-.21.06.26.26,0,0,0-.07.1v-.22c0-.23,0-.45,0-.68a7.34,7.34,0,0,1,.26-1.32,9.63,9.63,0,0,1,1.11-2.44,16.66,16.66,0,0,1,3.55-3.84,38.41,38.41,0,0,1,4.26-2.94c1.47-.89,3-1.71,4.46-2.53A47.8,47.8,0,0,0,227.72,174.92Z"/><path class="cls-6" d="M186.05,120c5.06.64,16.36,6.37,17.8,7,4.53,2,5.42,1.81,5.5,2s-6.13,1.75-8,2c-9.46,1.25-17.27-.56-20.57-2.07a20.65,20.65,0,0,1,2.44,1.71c1.17,1,6.36,5.55,7.32,6.26a21,21,0,0,0,3.86,1.91h0a.19.19,0,0,1,.1,0h0c-.48.22-10,4.93-14.77-1.23a26.49,26.49,0,0,1-2-3.6,13.94,13.94,0,0,0,3.28,3.88c2.34,1.92,5.51.75,7.28-.2a1.1,1.1,0,0,0,.2-1.8c-2.39-2-7.76-6.54-9.45-8a.15.15,0,0,1,.14-.25,68.27,68.27,0,0,0,13.2,2.16,11.38,11.38,0,0,0,6.17-1.35,1.41,1.41,0,0,0,0-2.47,52.16,52.16,0,0,0-9-4c-4.27-1.27-11.32-.52-11-.68l10.51-6.24c5.6-3.31,13.21-13.89,16.42-18.58a1.44,1.44,0,0,0-1.21-2.25,137.62,137.62,0,0,0-14.31.85c-18.36,3.17-18.4,26-18.4,26l0,22.2v2.82l.08,10c.75,1.35-1.95.75-1.76,0l0-35s-1.58-28,25.95-28.22c11-.08,17.59-1.06,17.15-.45s-7.47,11.23-10.7,14.45C193.61,115.6,184.85,119.85,186.05,120Z"/><path class="cls-6" d="M177.74,134a8.62,8.62,0,0,1-.58-1.23C177.22,132.9,177.44,133.38,177.74,134Z"/><path class="cls-7" d="M180.67,91.31c-2.15,1.3-4,2.42-3.53,2,6.3-6.3-1.43-14.38-2.61-15.56-.89-.89-2.16-.92-2.68.21,0,0-2.18,3.27-3.8,10.54a106.24,106.24,0,0,0-2,13.42.06.06,0,0,1,0,.05l0,.09a9.06,9.06,0,0,1-.31,1.88,17.49,17.49,0,0,0-1.42-2.16c-2.89-3.78-7.19-6.12-12.58-7a134.89,134.89,0,0,0-14.31-.84,1.42,1.42,0,0,0-1.21,2.23c3.21,4.7,10.82,15.28,16.42,18.6l10.51,6.23c.36.17-6.69-.59-11,.68a52.58,52.58,0,0,0-9,4,1.41,1.41,0,0,0,0,2.47,11.26,11.26,0,0,0,6.16,1.34,66.43,66.43,0,0,0,13.21-2.15.15.15,0,0,1,.13.26c-1.69,1.45-7.06,6-9.44,8a1.09,1.09,0,0,0,.19,1.8c1.77.94,4.94,2.11,7.28.2a14.22,14.22,0,0,0,3.32-3.95,26.86,26.86,0,0,1-2,3.66c-4.8,6.17-14.28,1.45-14.76,1.23h0l.1,0s0,0,0,0a21.26,21.26,0,0,0,3.86-1.91c.95-.71,6.14-5.26,7.31-6.25a20.84,20.84,0,0,1,2.45-1.72c-3.31,1.52-11.11,3.32-20.58,2.08-1.83-.24-8.06-1.74-8-2s1,0,5.51-2c1.43-.65,12.74-6.37,17.79-7,1.21-.16-7.55-4.39-16.31-13.1-3.23-3.22-10.34-14-10.7-14.45s5.76.38,16.7.46c8.8.06,15.85,2.44,19.1,6.7a138.9,138.9,0,0,1,2.88-17A108.13,108.13,0,0,1,173,66.3a.18.18,0,0,1,.34,0C174.6,69.14,182.76,91.05,180.67,91.31Z"/><ellipse class="cls-8" cx="173.31" cy="217.98" rx="30.16" ry="3.19"/><path class="cls-9" d="M186,243.34v29.9a2.76,2.76,0,0,1-2.76,2.75h-1a2.76,2.76,0,0,1-2.76-2.75v-29.9a2.75,2.75,0,0,0-2.76-2.76h-8.24a2.76,2.76,0,0,1-2.76-2.76v-.59a2.75,2.75,0,0,1,2.76-2.76H197a2.76,2.76,0,0,1,2.76,2.76v.59a2.77,2.77,0,0,1-2.76,2.76h-8.24A2.75,2.75,0,0,0,186,243.34Z"/><path class="cls-9" d="M204.93,242.77h18.74a2.76,2.76,0,0,1,2.76,2.76v.3a2.76,2.76,0,0,1-2.76,2.76H211.16a2.75,2.75,0,0,0-2.76,2.76v2.07a2.75,2.75,0,0,0,2.76,2.76h8.06a2.76,2.76,0,0,1,2.76,2.76h0a2.76,2.76,0,0,1-2.76,2.76h-8.06a2.75,2.75,0,0,0-2.76,2.76v3a2.75,2.75,0,0,0,2.76,2.76H224a2.77,2.77,0,0,1,2.76,2.76v.3A2.76,2.76,0,0,1,224,276h-19a2.75,2.75,0,0,1-2.76-2.75V245.53A2.76,2.76,0,0,1,204.93,242.77Z"/><path class="cls-9" d="M239.29,270l-1.58,4.24a2.75,2.75,0,0,1-2.58,1.79h-.39a2.76,2.76,0,0,1-2.57-3.76L243,244.53a2.77,2.77,0,0,1,2.57-1.76h3.77a2.75,2.75,0,0,1,2.57,1.76l10.83,27.7a2.75,2.75,0,0,1-2.56,3.76h-.51a2.75,2.75,0,0,1-2.59-1.79L255.51,270a2.76,2.76,0,0,0-2.59-1.8h-11A2.76,2.76,0,0,0,239.29,270Zm9-16.86a1,1,0,0,0-1.91,0l-1.91,5.24c-.74,2,.76,3.17,2.91,3.17h0c2.16,0,3.65-1.15,2.89-3.16C250.28,258.37,248.71,254.18,248.3,253.1Z"/><path class="cls-10" d="M129,265.52a2.7,2.7,0,0,1,1.4,4.29c-3.07,3.87-6.81,6.31-12.77,6.31-10.32,0-18.73-7.23-18.73-17.2s8.41-17.32,18.67-17.32a15,15,0,0,1,12.9,6.47,2.7,2.7,0,0,1-1.45,4.22l-.78.21a2.73,2.73,0,0,1-2.84-1,10.64,10.64,0,0,0-8.76-4.23c-6.77,0-11.45,4.75-11.45,11.57s4.8,11.57,11.39,11.57a11.16,11.16,0,0,0,8.95-4.09,2.74,2.74,0,0,1,2.85-1Z"/><path class="cls-10" d="M157.59,257.91c3.38.77,7,3.26,7,8.13,0,5.16-3,9.43-10.93,9.43H141.93c-1.49,0-3.68-1.2-3.68-2.69V244.94a2.68,2.68,0,0,1,2.68-2.69h11.38c6.11,0,10.26,4,10.26,8.48a6.85,6.85,0,0,1-5,6.94Zm-6.47-2c2.79,0,5.22-1.42,5.22-4.27,0-2.31-1.78-4.15-5.16-4.15h-4a2.68,2.68,0,0,0-2.68,2.69v3.05a2.68,2.68,0,0,0,2.68,2.68Zm1.24,14.36c3.5,0,5.76-1.72,5.76-4.63s-2.43-4.86-5.87-4.86h-5.09a2.68,2.68,0,0,0-2.68,2.69v4.11a2.68,2.68,0,0,0,2.68,2.69Z"/><line class="cls-11" x1="114.27" y1="295.63" x2="150.27" y2="295.63"/><line class="cls-11" x1="213.28" y1="295.63" x2="249.28" y2="295.63"/><text class="cls-12" transform="translate(163.86 299.5)">EST 2021</text></svg>