<svg id="Final_" data-name="Final*" xmlns="http://www.w3.org/2000/svg" viewBox="0 0 360 360"><defs><style>.cls-1,.cls-2{fill:none;stroke-miterlimit:10;stroke-width:30px;}.cls-1{stroke:#d5e3a6;}.cls-2{stroke:#e6c1a8;}</style></defs><path class="cls-1" d="M0,156.8c19.19,0,25.16-32.51,49.6-51.76,30.42-24,60.66-3.52,89.51-27C153,66.74,174.42,47.9,174.42.51"/><path class="cls-2" d="M0,260.07c34.16,0,66.65-80.65,121.9-85.55,46.7-4.13,74.93,22.63,103.38,7.93,39-20.15,43.74-93,35.34-138.71C257.39,26.18,249.74,15,249.74.51"/><path class="cls-1" d="M0,308.75c41.41,0,85.13-48.53,152.29-58.59,78.14-11.71,129.59,20.07,163.81-9.25C346.07,215.23,348,149.1,331,105.5c-8.16-20.94-21-36.84-21.13-65.73C309.71,17.6,325.68,13.52,325.68.6"/><path class="cls-2" d="M.47,343.94c90.45,0,153.14-40.61,192.11-39.95,60.63,1,104.94,31.73,140-3.3,18-18,1.35-47.54,27.44-47.54"/></svg>